<svg width="96" height="29" viewBox="0 0 96 29" fill="none" xmlns="http://www.w3.org/2000/svg">
<g clip-path="url(#clip0_2_2)">
<path d="M12.6344 11.6558C12.0337 11.5624 11.4883 11.6926 11.1051 10.8732L6.71786 0.185557C6.08113 0.0553178 5.97181 0.297354 5.73515 0.874783C4.38731 4.16993 3.04059 7.46623 1.69387 10.7614C1.31071 11.7111 0.747227 11.5624 0.1274 11.6558C-0.0540403 11.6926 -0.036009 11.8782 0.145431 11.8782C0.618754 11.8782 0.9467 11.8782 1.32987 11.8782V11.8598H1.74797V11.8782C2.14804 11.8782 2.87718 11.8782 3.3505 11.8782C3.53194 11.8782 3.54998 11.6926 3.36853 11.6558C2.76787 11.5624 1.83925 11.6926 2.1672 10.8732L2.85802 9.16048H8.885C9.12166 9.73791 9.35832 10.2957 9.57583 10.8732C9.90377 11.6926 9.28507 11.5624 8.6844 11.6558C8.50183 11.6926 8.50183 11.8782 8.70243 11.8782C9.17576 11.8782 9.59498 11.8782 9.99506 11.8782V11.8598H11.415V11.8782C11.8151 11.8782 12.143 11.8782 12.6164 11.8782C12.7989 11.8782 12.7989 11.6926 12.6344 11.6558ZM3.04059 8.75017L5.67993 2.327C5.78924 2.04808 5.91659 2.04808 6.04506 2.327C6.91846 4.46844 7.80988 6.60988 8.70243 8.75017H3.04059Z" fill="black"/>
<path d="M22.8291 9.49588C22.5564 10.7061 22.1011 11.4506 20.2078 11.4506H16.7852C16.4032 11.4137 16.1113 11.227 16.1113 10.668V1.43378C16.1113 0.447192 16.6398 0.614312 17.2585 0.502514C17.4411 0.465632 17.4219 0.185562 17.2405 0.185562H13.6534C13.4539 0.185562 13.4539 0.465632 13.6353 0.502514C14.236 0.614312 14.7646 0.447192 14.7646 1.43378V10.6311C14.7646 11.5993 14.236 11.4506 13.6353 11.5624C13.4539 11.5808 13.4539 11.8598 13.6534 11.8598H22.9204C22.9756 11.8598 23.0477 11.8413 23.0477 11.7664L23.139 9.51432C23.139 9.34605 22.8663 9.32761 22.8291 9.49588Z" fill="black"/>
<path d="M33.5699 9.49588C33.2971 10.7061 32.8418 11.4506 30.9486 11.4506H27.526C27.1439 11.4137 26.8521 11.227 26.8521 10.668V1.43378C26.8521 0.447192 27.3806 0.614312 27.9993 0.502514C28.1819 0.465632 28.1627 0.185562 27.9813 0.185562H24.3942C24.1947 0.185562 24.1947 0.465632 24.3761 0.502514C24.9768 0.614312 25.5053 0.447192 25.5053 1.43378V10.6311C25.5053 11.5993 24.9768 11.4506 24.3761 11.5624C24.1947 11.5808 24.1947 11.8598 24.3942 11.8598H33.6611C33.7164 11.8598 33.7885 11.8413 33.7885 11.7664L33.8798 9.51432C33.8798 9.34605 33.607 9.32761 33.5699 9.49588Z" fill="black"/>
<path d="M44.3107 9.81168C44.0379 11.0219 43.7833 11.4506 41.89 11.4506H38.2668C37.8848 11.4137 37.5929 11.227 37.5929 10.668V6.49809H41.216C42.3453 6.49809 42.5999 7.09396 42.636 7.67024C42.654 7.85695 42.9459 7.83851 42.9459 7.6518V4.93408C42.9459 4.72892 42.654 4.72892 42.636 4.91564C42.5999 5.47347 42.3453 6.08778 41.216 6.08778H37.5929V1.39574C37.5929 0.74455 37.9569 0.614312 38.4122 0.614312H41.2713C43.1646 0.614312 43.6187 1.04306 43.8926 2.25324C43.9286 2.42036 44.2205 2.38348 44.2205 2.23365L44.1112 0.278919C44.1112 0.223596 44.056 0.185562 43.9839 0.185562H35.135C34.9355 0.185562 34.9355 0.465632 35.1169 0.502514C35.7176 0.614312 36.2462 0.447192 36.2462 1.43378V10.6311C36.2462 11.5993 35.7176 11.4506 35.1169 11.5624C34.9355 11.5808 34.9355 11.8598 35.135 11.8598H44.402C44.4572 11.8598 44.5293 11.8413 44.5293 11.7664L44.6206 9.83012C44.6206 9.663 44.3479 9.64456 44.3107 9.81168Z" fill="black"/>
<path d="M57.2185 0.260468H54.0687C53.8872 0.260468 53.8681 0.539386 54.0506 0.57742C54.6513 0.669624 55.3433 0.539386 55.3974 1.41532C55.3974 4.28172 55.3974 7.09395 55.3974 9.97994C55.3974 10.222 55.234 10.2957 55.0886 10.0722C52.9034 6.96371 50.7194 3.85412 48.5522 0.76298C48.2975 0.409146 48.1341 0.260468 47.5875 0.260468H45.7123C45.5308 0.260468 45.5117 0.539386 45.6942 0.57742C46.2949 0.669624 46.8043 0.539386 46.8415 1.41532L46.7502 10.668C46.7502 11.6742 46.1135 11.5624 45.4936 11.6558C45.3122 11.6926 45.3122 11.9716 45.5117 11.9716H48.6615C48.8441 11.9716 48.8621 11.6926 48.6796 11.6558C48.0609 11.5624 47.4241 11.6926 47.4241 10.7245L47.3328 1.6758L54.3414 11.6362C54.5059 11.8598 54.6513 11.9716 54.9793 11.9716C55.1979 11.9716 55.4154 11.9716 55.616 11.9716C55.7986 11.9716 55.8707 11.8782 55.8707 11.6926L55.8898 1.50753C55.8898 0.520944 56.6179 0.669624 57.2366 0.57742C57.418 0.539386 57.418 0.260468 57.2185 0.260468Z" fill="black"/>
<path d="M63.1529 0.185562H58.2732C58.0737 0.185562 58.0737 0.465632 58.2552 0.502514C58.8559 0.614312 59.3844 0.447192 59.3844 1.43378C59.3844 3.89102 59.3844 8.1739 59.3844 10.6311C59.3844 11.5993 58.8559 11.4506 58.2552 11.5624C58.0737 11.5808 58.0737 11.8598 58.2732 11.8598H63.1529C72.0548 11.8598 72.074 0.185562 63.1529 0.185562ZM62.843 11.4691H61.5684C61.1143 11.4691 60.7311 11.3204 60.7311 10.668V1.39574C60.7311 0.74455 61.0951 0.614312 61.5504 0.614312H62.843C70.308 0.614312 70.4162 11.4691 62.843 11.4691Z" fill="black"/>
<path d="M76.8606 0C68.4862 0 68.4862 12.232 76.8606 12.232C85.235 12.232 85.235 0 76.8606 0ZM76.8606 11.8598C70.4347 11.8598 70.4166 0.372274 76.8606 0.372274C83.3237 0.372274 83.3057 11.8598 76.8606 11.8598ZM77.8444 5.97598C77.6438 5.88378 77.3159 5.92066 77.1885 5.77198C77.0432 5.64174 77.0792 5.32479 77.0071 5.11964C76.9519 4.95252 76.8065 4.95252 76.7333 5.11964C76.6431 5.32479 76.6792 5.66019 76.5338 5.79042C76.4064 5.9391 76.0965 5.90222 75.8959 5.97598C75.7325 6.03246 75.7325 6.18114 75.8959 6.25605C76.0965 6.34941 76.4245 6.31138 76.5518 6.46006C76.6972 6.59145 76.6611 6.90725 76.7333 7.1124C76.7885 7.27952 76.9339 7.27952 77.0071 7.1124C77.0973 6.90725 77.0612 6.57185 77.2066 6.44162C77.3339 6.29294 77.6438 6.32982 77.8444 6.25605C78.0078 6.19958 78.0078 6.0509 77.8444 5.97598Z" fill="black"/>
<path d="M95.2295 7.8385C94.9015 7.8385 94.6468 8.06209 94.6468 8.41593C94.6468 8.82508 94.9928 9.06712 95.3207 9.45783C95.8673 10.0722 95.376 11.1521 94.3921 11.1521C92.6994 11.1521 92.2441 8.56461 90.3508 8.08053C92.6262 7.87538 94.9748 6.75856 94.9748 4.15148C94.9748 1.58244 92.6442 0.260468 90.0409 0.260468H84.7611C84.5617 0.260468 84.5617 0.539386 84.7431 0.57742C85.3438 0.669624 85.8903 0.520944 85.8903 1.50753V10.7245C85.8903 11.7111 85.3438 11.5624 84.7431 11.6558C84.5617 11.6926 84.5617 11.9716 84.7611 11.9716H88.3663C88.5488 11.9716 88.5488 11.6926 88.3843 11.6558C87.7656 11.5624 87.2371 11.7111 87.2371 10.7245V1.47065C87.2371 0.819455 87.6202 0.689218 88.0755 0.689218L88.0203 0.669624C88.1296 0.669624 88.275 0.669624 88.621 0.669624C91.5882 0.669624 93.4274 1.7876 93.4274 4.16992C93.4274 6.5534 91.3155 7.80162 88.621 7.80162C88.3302 7.80162 88.4576 7.78202 88.1848 7.74514C87.8749 7.70826 87.8749 8.13586 88.2029 8.11742C90.5514 8.21077 91.3516 12.1202 93.7915 12.1202C95.376 12.1202 95.9766 10.8179 95.9947 9.51431C96.0127 8.95532 96.0307 7.8385 95.2295 7.8385Z" fill="black"/>
<path d="M77.9839 16.4143H60.7786L50.6461 15.6467L49.7874 16.5088L50.6461 17.3698L60.7786 16.6022H77.9963C78.0436 16.6022 78.0898 16.5676 78.0898 16.5088C78.0898 16.4489 78.0436 16.4143 77.9839 16.4143Z" fill="black"/>
<path d="M36.5355 16.4143H19.3302C19.2716 16.4143 19.2355 16.4616 19.2355 16.5088C19.2355 16.5549 19.2716 16.6022 19.3302 16.6022H36.5355L46.668 17.3698L47.5278 16.5088L46.668 15.6467L36.5355 16.4143Z" fill="black"/>
<path d="M49.3873 16.5088C49.3873 16.6056 49.3682 16.699 49.331 16.7889C49.2938 16.8776 49.242 16.9572 49.1732 17.0263C49.1045 17.0943 49.0256 17.1473 48.9365 17.1842C48.8475 17.2211 48.754 17.2407 48.6571 17.2407C48.5601 17.2407 48.4677 17.2211 48.3776 17.1842C48.2885 17.1473 48.2097 17.0943 48.1409 17.0263C48.0733 16.9572 48.0203 16.8776 47.9831 16.7889C47.9459 16.699 47.9279 16.6056 47.9279 16.5088C47.9279 16.4109 47.9459 16.3175 47.9831 16.2288C48.0203 16.1389 48.0733 16.0593 48.1409 15.9913C48.2097 15.9222 48.2885 15.8692 48.3776 15.8323C48.4677 15.7954 48.5601 15.777 48.6571 15.777C48.754 15.777 48.8475 15.7954 48.9365 15.8323C49.0256 15.8692 49.1045 15.9222 49.1732 15.9913C49.242 16.0593 49.2938 16.1389 49.331 16.2288C49.3682 16.3175 49.3873 16.4109 49.3873 16.5088Z" fill="black"/>
<path d="M25.352 26.1739C24.8944 26.0149 24.0864 25.8547 24.0864 25.2381C24.0864 24.8704 24.4369 24.5016 25.0792 24.5016C25.6145 24.5016 25.8771 24.7402 25.9842 25.1585C26.0428 25.3879 26.1882 25.4767 26.3245 25.4767C26.5973 25.4767 26.8497 25.1194 26.4417 24.701C26.1205 24.3725 25.6923 24.2526 25.0792 24.2434C24.3208 24.233 23.5229 24.5811 23.5229 25.487C23.5229 26.4725 24.4763 26.6211 25.1863 26.8701C25.6337 27.0199 26.373 27.2481 26.373 27.8152C26.373 28.2531 25.9447 28.7015 25.1863 28.7015C24.4076 28.7015 23.8734 28.4422 23.5522 28.154C23.5229 28.1241 23.4835 28.1137 23.4542 28.1137C23.3572 28.1137 23.2986 28.2232 23.3956 28.3235C23.8339 28.7511 24.4955 28.9896 25.1469 28.9896C25.9943 28.9896 26.9376 28.6416 26.9376 27.6169C26.9376 26.6914 26.0619 26.4125 25.352 26.1739Z" fill="black"/>
<path d="M29.573 24.2434C26.5764 24.2434 26.5764 28.9793 29.573 28.9793C32.5797 28.9793 32.5797 24.2434 29.573 24.2434ZM29.573 28.781C27.549 28.781 27.54 24.4417 29.573 24.4417C31.606 24.4417 31.597 28.781 29.573 28.781Z" fill="black"/>
<path d="M35.448 22.4915C35.3308 22.3129 35.0592 22.1342 34.7865 22.0536V22.0443C34.7674 22.0443 34.7381 22.0443 34.7178 22.034C34.6795 22.0248 34.64 22.0144 34.5916 22.0144C33.814 21.8749 32.909 22.2437 32.909 23.3375V24.3034C32.7535 24.3034 32.5777 24.3034 32.3545 24.3034C32.1787 24.3034 32.1787 24.5223 32.3545 24.5223H32.909V28.2232C32.909 28.7511 32.6171 28.6612 32.2959 28.7211C32.1979 28.7303 32.1979 28.8905 32.305 28.8905H34.1735C34.2704 28.8905 34.2805 28.7303 34.1836 28.7211C33.8523 28.6612 33.5705 28.7511 33.5705 28.2232V24.5223H34.6986C34.8643 24.5223 34.8643 24.3034 34.6986 24.3034C34.1543 24.3034 33.823 24.3034 33.5705 24.3034V23.3375C33.5705 22.7313 33.8624 22.223 34.3391 22.2034C34.6795 22.2138 34.8643 22.4616 34.9319 22.7405C34.9815 22.9399 35.1269 23.0298 35.2632 23.0298C35.4672 23.0298 35.652 22.8108 35.448 22.4915Z" fill="black"/>
<path d="M37.5003 28.5125C37.2377 28.622 37.0134 28.6807 36.8286 28.6807C36.4691 28.6807 36.2741 28.4525 36.2741 27.8555V24.5719H37.0033C37.1791 24.5719 37.1791 24.3529 37.0033 24.3529C36.6821 24.3529 36.4488 24.3529 36.2741 24.3529C36.2741 23.9046 36.2741 23.4574 36.2741 23.009C36.2741 22.9295 36.2155 22.8903 36.1569 22.8903C36.0983 22.8903 36.0408 22.9295 36.0408 23.009C35.9913 24.1339 35.7287 24.3425 34.9894 24.3529C34.8237 24.3529 34.8237 24.5719 34.9894 24.5719H35.6126V27.8751C35.6025 28.7015 36.0307 29 36.5559 29C36.877 29 37.2467 28.8905 37.578 28.7211C37.7426 28.6416 37.6558 28.4422 37.5003 28.5125Z" fill="black"/>
<path d="M44.883 28.622C44.6013 28.6012 44.3962 28.5413 44.3962 28.2727V21.8853C44.3962 21.815 44.3285 21.8058 44.2801 21.8357C43.9589 21.9948 43.569 22.1135 43.2095 22.2138C43.0539 22.253 43.1024 22.3924 43.1993 22.3924C43.667 22.3924 43.7256 22.382 43.7256 22.9203V24.8001C43.4619 24.4624 43.0145 24.233 42.4217 24.233C41.0491 24.233 40.1937 25.268 40.1937 26.6407C40.1937 27.9443 40.9522 28.97 42.2268 28.97C42.8691 28.97 43.3751 28.781 43.7256 28.373C43.7256 28.4825 43.7256 28.592 43.7256 28.6911C43.7256 28.8398 43.7639 28.8997 43.9195 28.8801L44.883 28.7706C45.0092 28.7603 45.0194 28.6312 44.883 28.622ZM42.5288 28.6911C41.3996 28.6911 40.8936 27.6561 40.9229 26.5912C40.9522 25.5366 41.5461 24.4716 42.4995 24.4716C43.0923 24.4624 43.7256 24.8001 43.7256 25.8051V27.8451C43.7256 28.2428 43.1419 28.6911 42.5288 28.6911Z" fill="black"/>
<path d="M49.551 26.2731C49.551 25.0295 48.7046 24.233 47.5078 24.233C46.1757 24.233 45.3677 25.2081 45.3868 26.6015C45.4071 28.3027 46.5544 28.9297 47.6441 28.9297C48.433 28.9297 49.1238 28.5713 49.4157 28.0249C49.4833 27.9051 49.4056 27.7956 49.3177 27.7956C49.2692 27.7956 49.2106 27.8256 49.1723 27.8947C48.8703 28.4122 48.3643 28.6312 47.7997 28.6416C46.9635 28.6612 46.1363 28.0745 46.1261 26.5912H49.2309C49.454 26.5912 49.551 26.4425 49.551 26.2731ZM48.3936 26.3134H46.1464C46.205 25.2577 46.6423 24.5512 47.5855 24.5223C48.4522 24.5223 48.9097 25.1585 48.9097 25.8155C48.9097 26.144 48.7632 26.3134 48.3936 26.3134Z" fill="black"/>
<path d="M53.9769 27.8947C53.6749 28.4122 53.1103 28.6312 52.5558 28.6416C51.7196 28.6612 50.8823 28.0745 50.8823 26.5819C50.8823 25.3476 51.4469 24.5223 52.5175 24.5223C52.7406 24.5223 52.975 24.5811 53.1892 24.6906H53.179C53.2275 24.701 53.2669 24.7206 53.2962 24.7505C53.3052 24.7505 53.3154 24.7609 53.3244 24.7701C53.5881 24.9499 53.6073 25.2784 53.5295 25.5274C53.4315 25.8455 53.6366 26.0345 53.8405 26.0345C54.0355 26.0345 54.2294 25.8651 54.2 25.487C54.191 25.3879 54.1426 25.2577 54.0648 25.1286C54.0547 25.1286 54.0547 25.1194 54.0445 25.109C54.0152 25.0686 53.9871 25.0295 53.9578 24.9799C53.9476 24.9695 53.9476 24.9592 53.9375 24.9592L53.889 24.9004C53.889 24.9004 53.88 24.89 53.8698 24.8796C53.8507 24.8497 53.7233 24.7402 53.6952 24.7114C53.685 24.701 53.6749 24.6906 53.6749 24.6814H53.6659C53.3052 24.3829 52.8477 24.233 52.371 24.233C51.0389 24.233 50.1238 25.2081 50.143 26.6015C50.1633 28.3027 51.3015 28.9297 52.3913 28.9297C53.179 28.9297 53.9285 28.5713 54.2203 28.0249C54.288 27.9051 54.2102 27.7956 54.1223 27.7956C54.0738 27.7956 54.0152 27.8256 53.9769 27.8947Z" fill="black"/>
<path d="M55.8145 23.7651C56.1255 23.7651 56.2517 23.2384 56.2517 23.0194C56.2517 22.7209 56.0286 22.5711 55.8145 22.5711C55.5902 22.5711 55.3671 22.7209 55.3671 23.0194C55.3671 23.2476 55.4933 23.7651 55.8145 23.7651ZM56.7972 28.7107C56.476 28.6508 56.1841 28.7407 56.1841 28.214V24.3126C56.1841 24.2434 56.1255 24.233 56.0669 24.263C55.7457 24.4221 55.3569 24.5419 55.0065 24.6411C54.8509 24.6814 54.8893 24.8209 54.9963 24.8209C55.4539 24.8209 55.5226 24.8105 55.5226 25.3476V28.214C55.5226 28.7407 55.2397 28.6508 54.9095 28.7107C54.8115 28.7303 54.8216 28.8801 54.9186 28.8801H56.7871C56.8941 28.8801 56.8941 28.7303 56.7972 28.7107Z" fill="black"/>
<path d="M59.2772 26.1739C58.8196 26.0149 58.0116 25.8547 58.0116 25.2381C58.0116 24.8704 58.3621 24.5016 59.0045 24.5016C59.5398 24.5016 59.8024 24.7402 59.9094 25.1585C59.968 25.3879 60.1134 25.4767 60.2498 25.4767C60.5225 25.4767 60.7749 25.1194 60.367 24.701C60.0458 24.3725 59.6175 24.2526 59.0045 24.2434C58.246 24.233 57.4481 24.5811 57.4481 25.487C57.4481 26.4725 58.4015 26.6211 59.1115 26.8701C59.5589 27.0199 60.2982 27.2481 60.2982 27.8152C60.2982 28.2531 59.87 28.7015 59.1115 28.7015C58.3328 28.7015 57.7986 28.4422 57.4774 28.154C57.4481 28.1241 57.4087 28.1137 57.3794 28.1137C57.2825 28.1137 57.2239 28.2232 57.3208 28.3235C57.7592 28.7511 58.4207 28.9896 59.0721 28.9896C59.9196 28.9896 60.8628 28.6416 60.8628 27.6169C60.8628 26.6914 59.9872 26.4125 59.2772 26.1739Z" fill="black"/>
<path d="M62.2338 23.7651C62.5449 23.7651 62.6711 23.2384 62.6711 23.0194C62.6711 22.7209 62.448 22.5711 62.2338 22.5711C62.0096 22.5711 61.7864 22.7209 61.7864 23.0194C61.7864 23.2476 61.9126 23.7651 62.2338 23.7651ZM63.2165 28.7107C62.8954 28.6508 62.6035 28.7407 62.6035 28.214V24.3126C62.6035 24.2434 62.5449 24.233 62.4863 24.263C62.1651 24.4221 61.7763 24.5419 61.4258 24.6411C61.2703 24.6814 61.3086 24.8209 61.4157 24.8209C61.8732 24.8209 61.9419 24.8105 61.9419 25.3476V28.214C61.9419 28.7407 61.6591 28.6508 61.3289 28.7107C61.2308 28.7303 61.241 28.8801 61.3379 28.8801H63.2064C63.3135 28.8801 63.3135 28.7303 63.2165 28.7107Z" fill="black"/>
<path d="M65.9298 24.2434C62.9333 24.2434 62.9333 28.9793 65.9298 28.9793C68.9366 28.9793 68.9366 24.2434 65.9298 24.2434ZM65.9298 28.781C63.9058 28.781 63.8968 24.4417 65.9298 24.4417C67.9629 24.4417 67.9539 28.781 65.9298 28.781Z" fill="black"/>
<path d="M73.7218 28.7107C73.3905 28.6508 73.1088 28.7407 73.1088 28.214V25.5665C73.1088 24.6906 72.3492 24.2434 71.5423 24.2434C70.9191 24.2434 70.2677 24.512 69.9274 25.0686V24.3126C69.9274 24.2434 69.8586 24.233 69.8102 24.263C69.489 24.4221 69.1002 24.5419 68.7395 24.641C68.584 24.6814 68.6325 24.8208 68.7305 24.8208C69.1971 24.8208 69.2557 24.8105 69.2557 25.3476V28.214C69.2557 28.7407 68.9739 28.6508 68.6528 28.7107C68.5547 28.7303 68.5547 28.8801 68.6618 28.8801H70.5303C70.6272 28.8801 70.6373 28.7303 70.5404 28.7107C70.2091 28.6508 69.9274 28.7407 69.9274 28.214V25.8455C69.9274 25.049 70.6757 24.6215 71.3473 24.6215C71.9221 24.6215 72.4371 24.92 72.4371 25.5665V28.214C72.4371 28.7407 72.1554 28.6508 71.824 28.7107C71.7373 28.7303 71.7373 28.8801 71.8342 28.8801H73.7117C73.8086 28.8801 73.8086 28.7303 73.7218 28.7107Z" fill="black"/>
</g>
<defs>
<clipPath id="clip0_2_2">
<rect width="96" height="29" fill="white"/>
</clipPath>
</defs>
</svg>
